<svg width="33" height="9" viewBox="0 0 33 9" fill="none" xmlns="http://www.w3.org/2000/svg">
<path d="M7.72907 0L0 8.52552H7.72907V0Z" fill="#FDA813"/>
<path d="M30.1223 8.50606C29.5848 8.50606 29.1348 8.39599 28.7722 8.17583C28.4096 7.9492 28.1376 7.63839 27.9563 7.2434C27.7815 6.84842 27.6941 6.39839 27.6941 5.89333C27.6941 5.38179 27.7847 4.93176 27.9661 4.54325C28.1474 4.14826 28.4193 3.83745 28.7819 3.61082C29.1445 3.38419 29.5978 3.27087 30.1417 3.27087C30.6792 3.27087 31.1259 3.38419 31.4821 3.61082C31.8447 3.83745 32.1134 4.14826 32.2882 4.54325C32.4695 4.93176 32.5602 5.38179 32.5602 5.89333C32.5602 6.39839 32.4695 6.84842 32.2882 7.2434C32.1069 7.63839 31.835 7.9492 31.4724 8.17583C31.1162 8.39599 30.6662 8.50606 30.1223 8.50606ZM30.1223 7.77761C30.4978 7.77761 30.8022 7.69343 31.0353 7.52507C31.2749 7.35672 31.4497 7.13009 31.5598 6.84518C31.6763 6.56027 31.7346 6.24299 31.7346 5.89333C31.7346 5.54367 31.6763 5.22638 31.5598 4.94147C31.4497 4.65656 31.2749 4.42993 31.0353 4.26158C30.8022 4.09322 30.4978 4.00905 30.1223 4.00905C29.7532 4.00905 29.4489 4.09322 29.2093 4.26158C28.9762 4.42993 28.8013 4.65656 28.6848 4.94147C28.5747 5.22638 28.5197 5.54367 28.5197 5.89333C28.5197 6.24299 28.5747 6.56027 28.6848 6.84518C28.8013 7.13009 28.9762 7.35672 29.2093 7.52507C29.4489 7.69343 29.7532 7.77761 30.1223 7.77761Z" fill="black"/>
<path d="M26.2493 8.44778V3.32914H27.0749V8.44778H26.2493ZM26.6573 2.57154C26.4889 2.57154 26.3529 2.51974 26.2493 2.41614C26.1522 2.31254 26.1036 2.17979 26.1036 2.01791C26.1036 1.85604 26.1554 1.72653 26.259 1.6294C26.3626 1.5258 26.4954 1.474 26.6573 1.474C26.8062 1.474 26.9357 1.5258 27.0458 1.6294C27.1623 1.73301 27.2206 1.86251 27.2206 2.01791C27.2206 2.17979 27.1656 2.31254 27.0555 2.41614C26.9454 2.51974 26.8127 2.57154 26.6573 2.57154Z" fill="black"/>
<path d="M22.9166 8.44774L20.9449 3.3291H21.8774L23.4897 7.65129L25.0729 3.3291H26.015L24.0433 8.44774H22.9166Z" fill="black"/>
<path d="M19.8885 8.44775V1.58081H20.7141V8.44775H19.8885Z" fill="black"/>
<path d="M16.6282 8.50606C16.3951 8.50606 16.1684 8.47693 15.9483 8.41865C15.7346 8.3539 15.5403 8.26001 15.3655 8.13698C15.1972 8.00748 15.0612 7.84883 14.9576 7.66105C14.8605 7.4668 14.8119 7.2434 14.8119 6.99087C14.8119 6.69949 14.8637 6.45343 14.9673 6.2527C15.0774 6.05197 15.2231 5.89333 15.4044 5.77677C15.5857 5.66022 15.7961 5.57604 16.0357 5.52424C16.2753 5.47244 16.5246 5.44654 16.7836 5.44654H18.2891C18.2891 5.15515 18.247 4.90262 18.1628 4.68894C18.0851 4.47526 17.9556 4.31014 17.7743 4.19359C17.593 4.07056 17.3534 4.00905 17.0555 4.00905C16.8742 4.00905 16.7059 4.02847 16.5505 4.06732C16.3951 4.10617 16.2623 4.16769 16.1523 4.25187C16.0422 4.33604 15.9612 4.44936 15.9094 4.59181H15.0256C15.0709 4.35871 15.1583 4.16121 15.2878 3.99933C15.4238 3.83098 15.5857 3.695 15.7735 3.5914C15.9677 3.48132 16.1749 3.40038 16.3951 3.34858C16.6152 3.29678 16.8354 3.27087 17.0555 3.27087C17.7937 3.27087 18.3182 3.48779 18.629 3.92163C18.9398 4.35547 19.0952 4.94147 19.0952 5.67964V8.44779H18.4056L18.3571 7.79703C18.2146 7.99129 18.043 8.14022 17.8423 8.24382C17.6415 8.34742 17.4343 8.41541 17.2207 8.44779C17.0135 8.48664 16.816 8.50606 16.6282 8.50606ZM16.7059 7.77761C17.0296 7.77761 17.3081 7.7258 17.5412 7.6222C17.7808 7.51212 17.9653 7.35348 18.0948 7.14628C18.2243 6.93907 18.2891 6.68654 18.2891 6.38868V6.13615H17.3858C17.1721 6.13615 16.9617 6.13938 16.7544 6.14586C16.5472 6.15233 16.3595 6.17823 16.1911 6.22356C16.0228 6.26889 15.8868 6.34659 15.7832 6.45667C15.686 6.56675 15.6375 6.72539 15.6375 6.93259C15.6375 7.12685 15.686 7.28549 15.7832 7.40852C15.8868 7.53155 16.0195 7.62544 16.1814 7.69019C16.3497 7.74847 16.5246 7.77761 16.7059 7.77761Z" fill="black"/>
<path d="M11.8072 8.52539C11.3734 8.52539 10.9622 8.46712 10.5737 8.35056C10.1916 8.22754 9.86465 8.03004 9.59269 7.75808C9.32073 7.47965 9.13619 7.11056 9.03906 6.65083H9.92293C10.0136 6.94221 10.1593 7.16884 10.36 7.33072C10.5672 7.4926 10.8036 7.60592 11.069 7.67067C11.3345 7.72895 11.6 7.75808 11.8655 7.75808C12.131 7.75808 12.377 7.72247 12.6037 7.65124C12.8368 7.57354 13.0245 7.45051 13.167 7.28216C13.3159 7.1138 13.3904 6.89688 13.3904 6.6314C13.3904 6.42419 13.3515 6.25584 13.2738 6.12634C13.2026 5.99683 13.099 5.89323 12.963 5.81553C12.8335 5.73135 12.6781 5.66336 12.4968 5.61156C12.2572 5.53386 12.0015 5.4691 11.7295 5.4173C11.4575 5.3655 11.1888 5.30399 10.9233 5.23276C10.6643 5.16153 10.4215 5.07088 10.1949 4.9608C10.0719 4.89605 9.95206 4.81835 9.83551 4.7277C9.72543 4.63057 9.6283 4.52049 9.54413 4.39746C9.46642 4.26796 9.40167 4.12227 9.34987 3.96039C9.30455 3.79851 9.28188 3.62044 9.28188 3.42618C9.28188 3.1348 9.32721 2.88227 9.41786 2.66859C9.50851 2.4549 9.63154 2.2736 9.78695 2.12467C9.94235 1.97574 10.1237 1.85595 10.3309 1.7653C10.5381 1.67464 10.7582 1.60989 10.9913 1.57104C11.2309 1.52572 11.4705 1.50305 11.7101 1.50305C12.1051 1.50305 12.4741 1.56457 12.8173 1.68759C13.167 1.80415 13.4551 1.99517 13.6818 2.26065C13.9149 2.52613 14.0411 2.8855 14.0606 3.33877H13.235C13.2026 3.06681 13.112 2.85313 12.963 2.69772C12.8141 2.54232 12.6296 2.43224 12.4094 2.36749C12.1892 2.30274 11.9561 2.27036 11.7101 2.27036C11.5288 2.27036 11.3442 2.28655 11.1564 2.31893C10.9751 2.3513 10.8068 2.40958 10.6514 2.49376C10.5025 2.57146 10.3827 2.68154 10.292 2.82399C10.2014 2.95997 10.156 3.1348 10.156 3.34848C10.156 3.51684 10.1852 3.66576 10.2434 3.79527C10.3082 3.92477 10.3924 4.03485 10.496 4.1255C10.6061 4.20968 10.7258 4.28091 10.8554 4.33918C11.1662 4.46869 11.5093 4.56582 11.8849 4.63057C12.2669 4.68884 12.6231 4.77626 12.9533 4.89281C13.1476 4.95756 13.3256 5.0385 13.4875 5.13563C13.6494 5.23276 13.7854 5.34608 13.8955 5.47558C14.012 5.60508 14.0994 5.75401 14.1577 5.92237C14.2225 6.08425 14.2548 6.26879 14.2548 6.476C14.2548 6.85156 14.1901 7.17208 14.0606 7.43756C13.9311 7.69657 13.753 7.90701 13.5264 8.06889C13.2997 8.23077 13.0375 8.34733 12.7396 8.41855C12.4482 8.48978 12.1374 8.52539 11.8072 8.52539Z" fill="black"/>
</svg>
